<svg width="65" height="80" viewBox="0 0 65 80" fill="none" xmlns="http://www.w3.org/2000/svg">
<path fill-rule="evenodd" clip-rule="evenodd" d="M48.6548 68.9488C35.1634 63.1388 29.3386 63.9861 15.8472 68.7874C15.8043 68.4646 15.7187 68.1418 15.6758 67.7787C15.2904 65.0755 15.2904 62.1705 15.8472 59.0638C16.7038 55.7957 19.7875 53.4556 22.7856 51.2366C25.5267 49.1789 28.1821 47.1615 29.6384 44.418V47.7667V47.8071C29.6384 49.1789 30.7948 50.3086 32.251 50.3086C33.7072 50.3086 34.9064 49.1789 34.9064 47.8071V44.418C36.3198 47.1615 38.9753 49.1789 41.7592 51.2366C44.7144 53.4556 47.841 55.7957 48.6548 59.0638C49.2116 62.1705 49.2544 65.0755 48.8261 67.7787C48.7833 68.1822 48.6976 68.5453 48.6548 68.9488ZM2.65559 5.32202C1.2422 5.32202 0.0429688 4.19231 0.0429688 2.82052C0.0429688 1.48908 1.2422 0.359375 2.65559 0.359375H16.0613H48.4406H61.8464C63.3026 0.359375 64.459 1.48908 64.459 2.82052C64.459 4.19231 63.3026 5.32202 61.8464 5.32202H52.4238C53.1519 7.29901 53.7087 9.35669 54.0513 11.5354C54.5225 14.7631 54.4796 18.1926 53.8372 21.8238L53.7944 21.9852C52.5523 26.9882 48.6976 29.8528 45.0143 32.6367C41.9733 34.8961 39.0609 37.0749 39.0609 39.9798C39.0609 42.9251 41.9733 45.1039 45.0143 47.3633C48.6976 50.1068 52.5523 53.0118 53.7944 57.9744L53.8372 58.1762C54.4796 61.8074 54.5225 65.2369 54.0513 68.4646C53.7087 70.6433 53.1519 72.701 52.4238 74.678H61.8464C63.3026 74.678 64.459 75.8077 64.459 77.1391C64.459 78.5109 63.3026 79.6406 61.8464 79.6406H48.4406H16.0613H2.65559C1.2422 79.6406 0.0429688 78.5109 0.0429688 77.1391C0.0429688 75.8077 1.2422 74.678 2.65559 74.678H12.121C11.35 72.701 10.7932 70.6433 10.4934 68.4646C9.97948 65.2369 10.0223 61.8074 10.6648 58.1762L10.7076 58.0148C11.9497 53.0118 15.8043 50.1472 19.4877 47.3633C22.5286 45.1039 25.441 42.9251 25.441 39.9798C25.441 37.0749 22.5286 34.8961 19.4877 32.6367C15.8472 29.8932 11.9925 26.9882 10.7504 22.0255L10.7076 21.8238C10.0223 18.1926 9.97948 14.7631 10.4934 11.5354C10.7932 9.35669 11.35 7.29901 12.121 5.32202H2.65559ZM49.0403 14.1983C48.9974 13.5124 48.9546 12.8668 48.8261 12.2213C48.4835 9.76015 47.7554 7.46039 46.7703 5.32202H17.7317C16.7466 7.46039 16.0613 9.76015 15.6758 12.2213C15.5902 12.8668 15.5045 13.5124 15.4617 14.1983H49.0403ZM32.251 53.2539C33.7072 53.2539 34.9064 54.3432 34.9064 55.715C34.9064 57.0868 33.7072 58.2165 32.251 58.2165C30.7948 58.2165 29.6384 57.0868 29.6384 55.715C29.6384 54.3432 30.7948 53.2539 32.251 53.2539Z" fill="black"/>
</svg>
