<svg width="25" height="25" viewBox="0 0 25 25" fill="none" xmlns="http://www.w3.org/2000/svg">
<g id="timer-outline">
<path id="Vector" d="M5.78589 6.68649C4.33051 8.31195 3.51569 10.4111 3.49323 12.5927C3.43792 17.5779 7.50808 21.6771 12.4932 21.6865C17.4714 21.6959 21.4932 17.6632 21.4932 12.6865C21.4932 7.78618 17.5768 3.79852 12.7042 3.68649C12.6767 3.68561 12.6494 3.69026 12.6238 3.70017C12.5982 3.71007 12.5749 3.72503 12.5552 3.74414C12.5355 3.76326 12.5199 3.78614 12.5093 3.81143C12.4986 3.83672 12.4932 3.8639 12.4932 3.89134V7.81149" stroke="black" stroke-width="1.5" stroke-linecap="round" stroke-linejoin="round"/>
<path id="Vector_2" d="M11.4329 13.7473L7.72974 8.4504C7.67851 8.37701 7.65474 8.28793 7.66261 8.19877C7.67047 8.10962 7.70947 8.02607 7.77275 7.96279C7.83604 7.8995 7.91958 7.86051 8.00874 7.85264C8.09789 7.84478 8.18697 7.86854 8.26036 7.91977L13.5572 11.6229C13.8821 11.8569 14.1018 12.2094 14.1689 12.6041C14.2359 12.9989 14.1448 13.4041 13.9153 13.7322C13.6858 14.0603 13.3364 14.2849 12.9426 14.3574C12.5489 14.4298 12.1424 14.3444 11.8111 14.1195C11.6647 14.018 11.5367 13.8921 11.4329 13.7473Z" fill="black"/>
</g>
</svg>
